{"asset": {"version": "2.0", "generator": "Riptide mh_export.py (MakeHuman 1.2.0, CC0)"}, "scene": 0, "scenes": [{"nodes": [0, 53]}], "nodes": [{"name": "root", "matrix": [1.0, -0.0, -0.0, 0.0, 0.0, 0.0, -1.0, 0.0, 0.0, 1.0, 0.0, 0.0, 0.0, 0.026574993133544944, -0.026579999923706056, 1.0], "children": [1]}, {"name": "pelvis", "matrix": [1.0, 0.0, 0.0, 0.0, 0.0, -0.28182795305259145, 0.9594649557252006, 0.0, 0.0, -0.9594649557252006, -0.2818279232502694, 0.0, 0.0, 0.04270759091306572, 0.9426468291907429, 1.0], "children": [2, 3, 4]}, {"name": "spine_01", "matrix": [1.0, 0.0, 0.0, 0.0, 0.0, 0.9831248444923985, -0.1829357037887136, 0.0, 0.0, 0.1829357027347443, 0.9831248391197471, 0.0, 0.0, 0.09381877524992843, -3.1704830538714646e-08, 1.0], "children": [5]}, {"name": "thigh_l", "matrix": [1.0, 0.0, 0.0, 0.0, 0.0, -0.9595306548844835, 0.28160413362328157, 0.0, 0.0, -0.28160412666799667, -0.9595326361135966, 0.0, 0.10819602255163632, 0.021938239133536652, 0.00046173987739545064, 1.0], "children": [6]}, {"name": "thigh_r", "matrix": [1.0, 0.0, 0.0, 0.0, 0.0, -0.9595306548844835, 0.28160413362328157, 0.0, 0.0, -0.28160412666799667, -0.9595326361135966, 0.0, -0.10819602255163632, 0.021938239133536652, 0.00046173987739545064, 1.0], "children": [7]}, {"name": "spine_02", "matrix": [1.0, 0.0, 0.0, 0.0, 0.0, 0.9968659834449076, -0.07910865220648959, 0.0, 0.0, 0.07910865070087449, 0.996866041143112, 0.0, 0.0, 0.07043879006152864, -4.837746314656499e-10, 1.0], "children": [8]}, {"name": "calf_l", "matrix": [1.0, 0.0, 0.0, 0.0, 0.0, 0.9937304983103664, 0.11180222878815584, 0.0, 0.0, -0.11180222187708337, 0.9937305098962386, 0.0, -7.459162537637454e-09, 0.4292939702433398, 6.615176406654655e-09, 1.0], "children": [9]}, {"name": "calf_r", "matrix": [1.0, 0.0, 0.0, 0.0, 0.0, 0.9937304983103664, 0.11180222878815584, 0.0, 0.0, -0.11180222187708337, 0.9937305098962386, 0.0, 7.459162537637454e-09, 0.4292939702433398, 6.615176406654655e-09, 1.0], "children": [10]}, {"name": "spine_03", "matrix": [1.0, 0.0, 0.0, 0.0, 0.0, 0.9691541756364928, -0.2464551675555634, 0.0, 0.0, 0.24645515915910746, 0.9691541125348847, 0.0, 0.0, 0.06187892089523728, -1.2268103491419602e-08, 1.0], "children": [11, 12, 13]}, {"name": "foot_l", "matrix": [0.9999999999997726, -4.475174645732328e-07, -1.6462690428805675e-07, 0.0, 2.500657913453526e-16, 0.3452474751385285, -0.9385117245755802, 0.0, 4.768373806379758e-07, 0.938511708636584, 0.34524744898492205, 0.0, 4.035004497193739e-09, 0.4426875971218093, 7.496826076591745e-09, 1.0], "children": [14]}, {"name": "foot_r", "matrix": [0.9999999999997726, 4.475174645732328e-07, 1.6462690428805675e-07, 0.0, -2.500657913453526e-16, 0.3452474751385285, -0.9385117245755802, 0.0, -4.768373806379758e-07, 0.938511708636584, 0.34524744898492205, 0.0, -4.035004497193739e-09, 0.4426875971218093, 7.496826076591745e-09, 1.0], "children": [15]}, {"name": "clavicle_l", "matrix": [0.44090970537951346, -0.20151732811860007, 0.8746367479483216, 0.0, 0.8975512642015868, 0.09839931142799958, -0.4297896945615732, 0.0, 0.0005464107095213261, 0.9745298650557846, 0.2242573703400093, 0.0, 0.046162330023899655, 0.2553889083666354, 0.09898213562740946, 1.0], "children": [16]}, {"name": "clavicle_r", "matrix": [0.44090970537951346, 0.20151732811860007, -0.8746367479483216, 0.0, -0.8975512642015868, 0.09839931142799958, -0.4297896945615732, 0.0, -0.0005464107095213261, 0.9745298650557846, 0.2242573703400093, 0.0, -0.046162330023899655, 0.2553889083666354, 0.09898213562740946, 1.0], "children": [17]}, {"name": "neck_01", "matrix": [1.0, 0.0, 0.0, 0.0, 0.0, 0.867635441150603, 0.49720092500542185, 0.0, 0.0, -0.4972009250054219, 0.867635441150603, 0.0, 0.0, 0.3495813085713573, -6.560462445515114e-08, 1.0], "children": [18]}, {"name": "ball_l", "matrix": [-1.0000000000000295, 3.9184720595691875e-08, -3.9868792861755566e-07, 0.0, 2.1372796042548726e-07, 0.8939237709768177, -0.44821975144087345, 0.0, 3.388331248834094e-07, -0.4482196266803838, -0.8939234460546244, 0.0, -4.95546766121624e-09, 0.14304918905529276, -7.549540076423611e-09, 1.0]}, {"name": "ball_r", "matrix": [-1.0000000000000295, -3.9184720595691875e-08, 3.9868792861755566e-07, 0.0, -2.1372796042548726e-07, 0.8939237709768177, -0.44821975144087345, 0.0, -3.388331248834094e-07, -0.4482196266803838, -0.8939234460546244, 0.0, 4.95546766121624e-09, 0.14304918905529276, -7.549540076423611e-09, 1.0]}, {"name": "upperarm_l", "matrix": [4.271718599277604e-05, 0.0005906258180756311, -0.9999995996408645, 0.0, 0.4135430603129418, 0.910483869360261, 0.000555378787204489, 0.0, 0.9104843720213643, -0.4135431236782232, -0.00020537611557129584, 0.0, -0.007463380896784354, 0.16807745760268847, -0.032409373513382134, 1.0], "children": [19]}, {"name": "upperarm_r", "matrix": [4.280658140566956e-05, -0.0005905960415321794, 0.9999995996448136, 0.0, -0.4135430603129367, 0.9104838693601925, 0.0005553789033158366, 0.0, -0.9104843720089062, -0.4135431237461778, -0.0002052569064388353, 0.0, 0.007463382305040612, 0.16807745652139336, -0.03240937879675965, 1.0], "children": [20]}, {"name": "Head", "matrix": [1.0, 0.0, 0.0, 0.0, 0.0, 0.9651150691561732, -0.26182638981799156, 0.0, 0.0, 0.2618264183425684, 0.9651150605232659, 0.0, 0.0, 0.10430277123395082, -9.834641323536175e-09, 1.0]}, {"name": "lowerarm_l", "matrix": [0.9999999999185, 5.9586026532572114e-08, -8.327251265869174e-05, 0.0, 5.056408641623624e-06, 0.9981111185234146, 0.06143542239319216, 0.0, 8.311888133145759e-05, -0.061435422089130644, 0.99811112737018, 0.0, -5.0516225202912324e-08, 0.2571267776015698, -5.104339312334005e-09, 1.0], "children": [21]}, {"name": "lowerarm_r", "matrix": [0.9999999999162562, -5.947034769907321e-08, 8.33917225101934e-05, 0.0, -5.063847294257254e-06, 0.9981111185234148, 0.06143542239319224, 0.0, -8.323786551479043e-05, -0.06143542208913077, 0.9981111273700605, 0.0, 5.765887212128007e-08, 0.2571267776015699, -1.232357868530265e-08, 1.0], "children": [22]}, {"name": "hand_l", "matrix": [1.0000000000001246, -5.083041131869454e-09, 8.345326201420441e-07, 0.0, 3.1117584073566076e-08, 0.9995131471109641, -0.031199518578094464, 0.0, -8.339676685253797e-07, 0.031199518494493976, 0.9995130827994165, 0.0, -4.755487204022302e-08, 0.2713939340690621, 9.289425464964474e-09, 1.0], "children": [23, 24, 25, 26, 27]}, {"name": "hand_r", "matrix": [1.000000000000053, 1.3646856485157013e-09, -9.536910603183343e-07, 0.0, -3.11187173892438e-08, 0.9995131471109638, -0.031199518578094464, 0.0, 9.531841310031322e-07, 0.031199518494508947, 0.9995130827993217, 0.0, 3.8867430829370164e-08, 0.27139393406906204, 1.5209319692566226e-08, 1.0], "children": [28, 29, 30, 31, 32]}, {"name": "index_01_l", "matrix": [0.00014835284205562483, -0.014174158495876632, -0.9998997302983847, 0.0, 0.03822015649944209, 0.9991693219596306, -0.014158133004804827, 0.0, 0.9992694786554169, -0.0382142182028567, 0.0006899677878785213, 0.0, 0.0068164740094989185, 0.1117787187610122, 0.03869645324612086, 1.0], "children": [33]}, {"name": "middle_01_l", "matrix": [8.392173832057881e-06, -0.023889954967057495, -0.9997145700691407, 0.0, 0.0382157949831795, 0.998984181217395, -0.02387218277221434, 0.0, 0.9992694158674061, -0.038204694799711655, 0.0009213573632937097, 0.0, 0.0045859794264691, 0.11305870954478903, 0.01480178347407439, 1.0], "children": [34]}, {"name": "pinky_01_l", "matrix": [8.47568048262479e-06, -0.030851276042861097, -0.999524146925634, 0.0, 0.0382037618434137, 0.9987946057262567, -0.03082843361294459, 0.0, 0.999270099093117, -0.03818531138290944, 0.0011870999765795638, 0.0, 0.0060995080075181285, 0.09954794025685698, -0.03497097833842615, 1.0], "children": [35]}, {"name": "ring_01_l", "matrix": [0.0002622609882667453, 0.005102014238547375, -0.999986955090571, 0.0, 0.03822844158669123, 0.9992558032077813, 0.005108311071806465, 0.0, 0.9992690351574298, -0.038229294033497195, 6.702368249163928e-05, 0.0, 0.004729553752905735, 0.10888699985470984, -0.012312095130198195, 1.0], "children": [36]}, {"name": "thumb_01_l", "matrix": [-0.8740051895628229, 0.43675556482105454, 0.21297821565403838, 0.0, 0.48591396162351314, 0.7871107155175964, 0.37992775864874806, 0.0, -0.0017019416395638314, 0.4355477214878885, -0.9001642344006706, 0.0, 0.022899640358433837, 0.02817621703232287, 0.03421715798193576, 1.0], "children": [37]}, {"name": "index_01_r", "matrix": [0.0001479952156342922, 0.014174147517400338, 0.9998997307534624, 0.0, -0.03822015889164711, 0.9991693219829993, -0.014158131764520888, 0.0, -0.9992694790834518, -0.03821421974038453, 0.0006896103528215911, 0.0, -0.006816470113606199, 0.11177872507378572, 0.0386964356965046, 1.0], "children": [38]}, {"name": "middle_01_r", "matrix": [8.273284660844408e-06, 0.02388995125314284, 0.9997145702033798, 0.0, -0.03821579588144788, 0.9989841812691969, -0.0238721854609819, 0.0, -0.9992694162616514, -0.038204693207005425, 0.0009212383105349936, 0.0, -0.004585975964156663, 0.11305870993218325, 0.014801781392004859, 1.0], "children": [39]}, {"name": "pinky_01_r", "matrix": [8.356813957595006e-06, 0.030851268610213457, 0.9995241473285172, 0.0, -0.038203761904222824, 0.9987946057551188, -0.030828432588830935, 0.0, -0.9992700992344214, -0.038185317422498394, 0.0011869807058745596, 0.0, -0.006099378308926928, 0.09954795046229437, -0.03497097159620789, 1.0], "children": [40]}, {"name": "ring_01_r", "matrix": [0.00026214201040010025, -0.005102017958195042, 0.9999869550813858, 0.0, -0.03822844220996818, 0.9992558032566583, 0.005108310704220948, 0.0, -0.9992690355991073, -0.03822929170019356, 6.690445034038805e-05, 0.0, -0.0047295438171846005, 0.1088870015183544, -0.012312083736874743, 1.0], "children": [41]}, {"name": "thumb_01_r", "matrix": [-0.8740051253863322, -0.43675547574549634, -0.21297819279901484, 0.0, -0.4859138630682911, 0.7871105638949396, 0.3799277424587031, 0.0, 0.0017019075389289138, 0.4355476422965699, -0.9001642441618889, 0.0, -0.022899705057245257, 0.02817617824363261, 0.034217147044462194, 1.0], "children": [42]}, {"name": "index_02_l", "matrix": [0.9999993848637425, -0.001066081682051585, -9.898210669987285e-05, 0.0, 0.0010660808362231177, 0.9999994611011123, 7.16979559122058e-07, 0.0, 9.898121082919933e-05, -8.27708934024279e-07, 0.9999999137750428, 0.0, 2.2352568684880225e-09, 0.028775438737837056, -2.1639176006615912e-08, 1.0], "children": [43]}, {"name": "middle_02_l", "matrix": [0.9999916318140466, 0.0041056192155149804, -0.0001568065979322392, 0.0, -0.00410562071336887, 0.99999171394681, 1.445231875441767e-06, 0.0, 0.0001568111737932486, -8.06411550984948e-07, 1.0000001249984911, 0.0, 3.353641551961939e-09, 0.037473891044201846, 3.151633554132616e-08, 1.0], "children": [44]}, {"name": "pinky_02_l", "matrix": [0.9999951680070709, -0.0031348737906905814, -0.0001907219801930293, 0.0, 0.0031348773590290867, 0.9999951301649033, 4.962398074744032e-07, 0.0, 0.00019071929715865746, -1.089357770280881e-06, 1.000000042680866, 0.0, -3.3049525755002307e-09, 0.02369099804833863, -1.7638005989084604e-07, 1.0], "children": [45]}, {"name": "ring_02_l", "matrix": [0.9999883473458518, 0.004799514739789681, -0.00043708374832803745, 0.0, -0.004799518365479037, 0.9999883921133828, -8.426795814426121e-06, 0.0, 0.0004370382323670689, 1.0523132658410524e-05, 0.9999998489670988, 0.0, 4.393249306011704e-09, 0.03301097485862692, -7.675891455782846e-08, 1.0], "children": [46]}, {"name": "thumb_02_l", "matrix": [0.9999999270047873, -6.42451252425448e-06, -9.420671538318945e-06, 0.0, 6.403261384204588e-06, 0.9999998478454798, 1.2403099171568484e-06, 0.0, 9.43929556041061e-06, -1.2201158960873067e-06, 0.9999998836694837, 0.0, -8.713277144245524e-08, 0.03416307386615136, 3.0456258903743816e-08, 1.0], "children": [47]}, {"name": "index_02_r", "matrix": [0.9999993846349651, 0.001066085406897164, 9.871822815186783e-05, 0.0, -0.0010660856535471817, 0.9999994611867824, 7.098283606840413e-07, 0.0, -9.871734375461204e-05, -8.239842354000609e-07, 0.9999999140463152, 0.0, -6.86894145729422e-10, 0.028775438724785163, -2.4216355587469707e-08, 1.0], "children": [48]}, {"name": "middle_02_r", "matrix": [0.9999916318025719, -0.004105619215677702, 0.00015678103427225893, 0.0, 0.004105621688611477, 0.9999917142238913, 1.442014304488034e-06, 0.0, -0.00015678567922396098, -7.989665154940528e-07, 1.000000125121366, 0.0, 8.854216457243602e-10, 0.03747389102486498, 2.9623766550912478e-08, 1.0], "children": [49]}, {"name": "pinky_02_r", "matrix": [0.9999951677149643, 0.003134877515729767, 0.0001906960140989538, 0.0, -0.003134885687241633, 0.9999951303113519, 4.896720185837044e-07, 0.0, -0.00019069350014543527, -1.0819088910457605e-06, 1.0000000429397964, 0.0, -2.3865996262584233e-09, 0.023690998040007516, -8.981765997617686e-08, 1.0], "children": [50]}, {"name": "ring_02_r", "matrix": [0.9999883473985702, -0.004799511014957893, 0.000437057759895873, 0.0, 0.004799515165458227, 0.9999883921502838, -8.427053314320895e-06, 0.0, -0.00043701225145990316, 1.0523131150167804e-05, 0.9999998489766233, 0.0, -7.849520450298186e-09, 0.03301097484515636, -7.490995002079615e-08, 1.0], "children": [51]}, {"name": "thumb_02_r", "matrix": [1.0000000223147492, 6.3533751502755626e-06, 9.576533398750625e-06, 0.0, -6.3299761332181585e-06, 0.9999998528513417, 1.3279527002587264e-06, 0.0, -9.613008360460423e-06, -1.300494833496259e-06, 0.9999999499977852, 0.0, 3.936176495855648e-09, 0.0341630798350637, 1.3521545383365918e-08, 1.0], "children": [52]}, {"name": "index_03_l", "matrix": [0.9999999820232228, -0.00037132143545436466, 1.4291034967536839e-05, 0.0, 0.0003713211385151506, 1.0000000168227752, 3.888022330606019e-06, 0.0, -1.4292493061886372e-05, -3.882024642172509e-06, 1.000000089741677, 0.0, -9.830675613831108e-10, 0.025784942635357244, 1.4687135974078558e-07, 1.0]}, {"name": "middle_03_l", "matrix": [0.9999959092383982, -0.002839657041093656, 0.00010865988641616365, 0.0, 0.0028396570552504065, 0.9999958761342758, -7.846766245886523e-07, 0.0, -0.00010865712230502169, 1.0915325938413212e-06, 0.9999999694354326, 0.0, -6.145543865465619e-09, 0.03048909136967226, -1.5486874960224384e-07, 1.0]}, {"name": "pinky_03_l", "matrix": [0.9999994409207179, 0.0009320112864651419, 0.00027488896001320683, 0.0, -0.0009320236366962868, 0.9999994918781125, 6.572780983208649e-06, 0.0, -0.00027488249632592757, -6.829193581820435e-06, 0.9999998060357324, 0.0, 3.9998999945556335e-10, 0.017318523082849757, 8.571685650160532e-08, 1.0]}, {"name": "ring_03_l", "matrix": [0.9999769275592513, -0.006775066588895146, 0.000505926116384721, 0.0, 0.006775062451451473, 0.99997705872915, 9.416387154537412e-06, 0.0, -0.0005059782569652184, -5.983512074203787e-06, 0.9999999279825754, 0.0, -4.7888066567747245e-09, 0.02758946403798823, -9.725901595203368e-08, 1.0]}, {"name": "thumb_03_l", "matrix": [0.9999999825500488, 3.4212437427673797e-06, 5.945476769274888e-05, 0.0, -3.423774457361688e-06, 0.9999999593784894, -1.1571927795448186e-07, 0.0, -5.948614867264048e-05, 6.377468128676738e-08, 0.9999999112126509, 0.0, 9.814854262657491e-09, 0.04049887516829058, -4.121360092090853e-08, 1.0]}, {"name": "index_03_r", "matrix": [0.9999999820221699, 0.0003713214355846718, -1.4291093221847214e-05, 0.0, -0.0003713211364323805, 1.0000000166803749, 3.891746261776921e-06, 0.0, 1.4292547079561054e-05, -3.88574720932643e-06, 1.0000000895992693, 0.0, 9.108786711009564e-10, 0.025784942621383644, 1.499175406038944e-07, 1.0]}, {"name": "middle_03_r", "matrix": [0.9999959091987592, 0.0028396589032412757, -0.00010865982822116913, 0.0, -0.0028396589203598045, 0.9999958760921654, -7.846779410867258e-07, 0.0, 0.00010865708245207136, 1.0915341433104394e-06, 0.9999999694354692, 0.0, 8.596198197707849e-10, 0.03048909134572786, -1.5487249660495195e-07, 1.0]}, {"name": "pinky_03_r", "matrix": [0.9999994409067123, -0.0009320150094253929, -0.00027488871374566477, 0.0, 0.0009320236341347709, 0.9999994920046039, 6.580223081367292e-06, 0.0, 0.00027488239034729843, -6.829198238080158e-06, 0.9999998057512953, 0.0, -3.0167589259999517e-10, 0.017318523073242553, 8.978177090668282e-08, 1.0]}, {"name": "ring_03_r", "matrix": [0.9999769276944128, 0.006775067286316299, -0.000505687655410817, 0.0, -0.006775062485420146, 0.9999770587311115, 9.417134196537337e-06, 0.0, 0.0005057398280954761, -5.9851271321011716e-06, 0.9999999281355978, 0.0, -6.195594037805563e-11, 0.02758946402613871, -1.1522766096838666e-07, 1.0]}, {"name": "thumb_03_r", "matrix": [0.9999999797117112, -3.3951962929748903e-06, -5.9402997663274345e-05, 0.0, 3.428624547895694e-06, 0.9999999738597418, -8.594497540226849e-08, 0.0, 5.9406106866046896e-05, 6.372556833223419e-08, 0.9999999777535775, 0.0, -1.7267524299313664e-07, 0.04049888204102188, -6.928364992830893e-09, 1.0]}, {"name": "Hair", "mesh": 0, "skin": 0}], "skins": [{"joints": [0, 1, 2, 3, 4, 5, 6, 7, 8, 9, 10, 11, 12, 13, 14, 15, 16, 17, 18, 19, 20, 21, 22, 23, 24, 25, 26, 27, 28, 29, 30, 31, 32, 33, 34, 35, 36, 37, 38, 39, 40, 41, 42, 43, 44, 45, 46, 47, 48, 49, 50, 51, 52], "inverseBindMatrices": 0, "skeleton": 0}], "meshes": [{"name": "Hair", "primitives": [{"attributes": {"POSITION": 1, "NORMAL": 2, "TEXCOORD_0": 3, "JOINTS_0": 4, "WEIGHTS_0": 5}, "indices": 6, "material": 0}]}], "materials": [{"name": "Hair_short04", "pbrMetallicRoughness": {"metallicFactor": 0.0, "roughnessFactor": 0.6, "baseColorTexture": {"index": 0}}, "doubleSided": true, "alphaMode": "BLEND"}], "images": [{"uri": "short04_diffuse.png"}], "textures": [{"source": 0}], "buffers": [{"uri": "SK_Hair_Buzzed.bin", "byteLength": 71488}], "bufferViews": [{"buffer": 0, "byteOffset": 0, "byteLength": 3392}, {"buffer": 0, "byteOffset": 3392, "byteLength": 11892, "target": 34962}, {"buffer": 0, "byteOffset": 15284, "byteLength": 11892, "target": 34962}, {"buffer": 0, "byteOffset": 27176, "byteLength": 7928, "target": 34962}, {"buffer": 0, "byteOffset": 35104, "byteLength": 7928, "target": 34962}, {"buffer": 0, "byteOffset": 43032, "byteLength": 15856, "target": 34962}, {"buffer": 0, "byteOffset": 58888, "byteLength": 12600, "target": 34963}], "accessors": [{"bufferView": 0, "componentType": 5126, "count": 53, "type": "MAT4"}, {"bufferView": 1, "componentType": 5126, "count": 991, "type": "VEC3", "min": [-0.07735629379749298, 1.5739555358886719, -0.18641220033168793], "max": [0.07860232144594193, 1.787734866142273, 0.016550973057746887]}, {"bufferView": 2, "componentType": 5126, "count": 991, "type": "VEC3"}, {"bufferView": 3, "componentType": 5126, "count": 991, "type": "VEC2"}, {"bufferView": 4, "componentType": 5123, "count": 991, "type": "VEC4"}, {"bufferView": 5, "componentType": 5126, "count": 991, "type": "VEC4"}, {"bufferView": 6, "componentType": 5125, "count": 3150, "type": "SCALAR"}]}