{"asset": {"version": "2.0", "generator": "Riptide mh_export.py (MakeHuman 1.2.0, CC0)"}, "scene": 0, "scenes": [{"nodes": [0, 53, 54, 55, 56, 57]}], "nodes": [{"name": "root", "matrix": [1.0, -0.0, -0.0, 0.0, 0.0, 0.0, -1.0, 0.0, 0.0, 1.0, 0.0, 0.0, 0.0, 0.026854991912841797, -0.02675866484642029, 1.0], "children": [1]}, {"name": "pelvis", "matrix": [1.0, 0.0, 0.0, 0.0, 0.0, -0.28182795305259145, 0.9594649557252006, 0.0, 0.0, -0.9594649557252006, -0.2818279232502694, 0.0, 0.0, 0.04045394843849661, 0.8929041748437329, 1.0], "children": [2, 3, 4]}, {"name": "spine_01", "matrix": [1.0, 0.0, 0.0, 0.0, 0.0, 0.9831248444923985, -0.1829357037887136, 0.0, 0.0, 0.1829357027347443, 0.9831248391197471, 0.0, 0.0, 0.08011056615023948, -2.7072320163412655e-08, 1.0], "children": [5]}, {"name": "thigh_l", "matrix": [1.0, 0.0, 0.0, 0.0, 0.0, -0.9595306548844835, 0.28160413362328157, 0.0, 0.0, -0.28160412666799667, -0.9595326361135966, 0.0, 0.095542906110442, 0.019372644874848244, 0.0004077411416153476, 1.0], "children": [6]}, {"name": "thigh_r", "matrix": [1.0, 0.0, 0.0, 0.0, 0.0, -0.9595306548844835, 0.28160413362328157, 0.0, 0.0, -0.28160412666799667, -0.9595326361135966, 0.0, -0.09554290602037879, 0.01937264485658663, 0.0004077411412310439, 1.0], "children": [7]}, {"name": "spine_02", "matrix": [1.0, 0.0, 0.0, 0.0, 0.0, 0.9968659834449076, -0.07910865220648959, 0.0, 0.0, 0.07910865070087449, 0.996866041143112, 0.0, 0.0, 0.06901005963872586, -4.739620640403786e-10, 1.0], "children": [8]}, {"name": "calf_l", "matrix": [1.0, 0.0, 0.0, 0.0, 0.0, 0.9937304983103664, 0.11180222878815584, 0.0, 0.0, -0.11180222187708337, 0.9937305098962386, 0.0, -7.181745545481455e-09, 0.4133279092296269, 6.369148472518127e-09, 1.0], "children": [9]}, {"name": "calf_r", "matrix": [1.0, 0.0, 0.0, 0.0, 0.0, 0.9937304983103664, 0.11180222878815584, 0.0, 0.0, -0.11180222187708337, 0.9937305098962386, 0.0, 7.181745545481455e-09, 0.4133279092296268, 6.369148479457021e-09, 1.0], "children": [10]}, {"name": "spine_03", "matrix": [1.0, 0.0, 0.0, 0.0, 0.0, 0.9691541756364928, -0.2464551675555634, 0.0, 0.0, 0.24645515915910746, 0.9691541125348847, 0.0, 0.0, 0.09205574835284214, -1.8250955746701436e-08, 1.0], "children": [11, 12, 13]}, {"name": "foot_l", "matrix": [0.9999999999997726, -4.475174645732328e-07, -1.6462690428805675e-07, 0.0, 2.500657913453526e-16, 0.3452474751385285, -0.9385117245755802, 0.0, 4.768373806379758e-07, 0.938511708636584, 0.34524744898492205, 0.0, 3.6384557727808797e-09, 0.3991815235300368, 6.76005935951185e-09, 1.0], "children": [14]}, {"name": "foot_r", "matrix": [0.9999999999997726, 4.475174645732328e-07, 1.6462690428805675e-07, 0.0, -2.500657913453526e-16, 0.3452474751385285, -0.9385117245755802, 0.0, -4.768373806379758e-07, 0.938511708636584, 0.34524744898492205, 0.0, -3.6384557727808797e-09, 0.3991815235300368, 6.76005935951185e-09, 1.0], "children": [15]}, {"name": "clavicle_l", "matrix": [0.44090970537951346, -0.20151732811860007, 0.8746367479483216, 0.0, 0.8975512642015868, 0.09839931142799958, -0.4297896945615732, 0.0, 0.0005464107095213261, 0.9745298650557846, 0.2242573703400093, 0.0, 0.03964841373276787, 0.21935125667265698, 0.0850148738912582, 1.0], "children": [16]}, {"name": "clavicle_r", "matrix": [0.44090970537951346, 0.20151732811860007, -0.8746367479483216, 0.0, -0.8975512642015868, 0.09839931142799958, -0.4297896945615732, 0.0, -0.0005464107095213261, 0.9745298650557846, 0.2242573703400093, 0.0, -0.03964841373123373, 0.21935125666416933, 0.08501487388796866, 1.0], "children": [17]}, {"name": "neck_01", "matrix": [1.0, 0.0, 0.0, 0.0, 0.0, 0.867635441150603, 0.49720092500542185, 0.0, 0.0, -0.4972009250054219, 0.867635441150603, 0.0, 0.0, 0.3065847370032522, -5.7535617686843565e-08, 1.0], "children": [18]}, {"name": "ball_l", "matrix": [-1.0000000000000295, 3.9184720595691875e-08, -3.9868792861755566e-07, 0.0, 2.1372796042548726e-07, 0.8939237709768177, -0.44821975144087345, 0.0, 3.388331248834094e-07, -0.4482196266803838, -0.8939234460546244, 0.0, -4.435304734595746e-09, 0.12803367699977933, -6.757083920172491e-09, 1.0]}, {"name": "ball_r", "matrix": [-1.0000000000000295, -3.9184720595691875e-08, 3.9868792861755566e-07, 0.0, -2.1372796042548726e-07, 0.8939237709768177, -0.44821975144087345, 0.0, -3.388331248834094e-07, -0.4482196266803838, -0.8939234460546244, 0.0, 4.435304734595746e-09, 0.12803367699977933, -6.7570839479280664e-09, 1.0]}, {"name": "upperarm_l", "matrix": [4.271718599277604e-05, 0.0005906258180756311, -0.9999995996408645, 0.0, 0.4135430603129418, 0.910483869360261, 0.000555378787204489, 0.0, 0.9104843720213643, -0.4135431236782232, -0.00020537611557129584, 0.0, -0.005908537255828647, 0.13306193718966247, -0.025657539590990153, 1.0], "children": [19]}, {"name": "upperarm_r", "matrix": [4.280658140566956e-05, -0.0005905960415321794, 0.9999995996448136, 0.0, -0.4135430603129367, 0.9104838693601925, 0.0005553789033158366, 0.0, -0.9104843720089062, -0.4135431237461778, -0.0002052569064388353, 0.0, 0.005908538370703369, 0.13306193633363322, -0.025657543773683678, 1.0], "children": [20]}, {"name": "Head", "matrix": [1.0, 0.0, 0.0, 0.0, 0.0, 0.9651150691561732, -0.26182638981799156, 0.0, 0.0, 0.2618264183425684, 0.9651150605232659, 0.0, 0.0, 0.11533983044163132, -1.0875318423586577e-08, 1.0]}, {"name": "lowerarm_l", "matrix": [0.9999999999185, 5.9586026532572114e-08, -8.327251265869174e-05, 0.0, 5.056408641623624e-06, 0.9981111185234146, 0.06143542239319216, 0.0, 8.311888133145759e-05, -0.061435422089130644, 0.99811112737018, 0.0, -4.94344791768242e-08, 0.25162070811358817, -4.99503585021932e-09, 1.0], "children": [21]}, {"name": "lowerarm_r", "matrix": [0.9999999999162562, -5.947034769907321e-08, 8.33917225101934e-05, 0.0, -5.063847294257254e-06, 0.9981111185234148, 0.06143542239319224, 0.0, -8.323786551479043e-05, -0.06143542208913077, 0.9981111273700605, 0.0, 5.642417488793683e-08, 0.2516207081135883, -1.2059683647536179e-08, 1.0], "children": [22]}, {"name": "hand_l", "matrix": [1.0000000000001246, -5.083041131869454e-09, 8.345326201420441e-07, 0.0, 3.1117584073566076e-08, 0.9995131471109641, -0.031199518578094464, 0.0, -8.339676685253797e-07, 0.031199518494493976, 0.9995130827994165, 0.0, -3.954511895720714e-08, 0.22568256316397184, 7.72479075150656e-09, 1.0], "children": [23, 24, 25, 26, 27]}, {"name": "hand_r", "matrix": [1.000000000000053, 1.3646856485157013e-09, -9.536910603183343e-07, 0.0, -3.11187173892438e-08, 0.9995131471109638, -0.031199518578094464, 0.0, 9.531841310031322e-07, 0.031199518494508947, 0.9995130827993217, 0.0, 3.232091927429792e-08, 0.22568256316397195, 1.2647586478120587e-08, 1.0], "children": [28, 29, 30, 31, 32]}, {"name": "index_01_l", "matrix": [0.00014835284205562483, -0.014174158495876632, -0.9998997302983847, 0.0, 0.03822015649944209, 0.9991693219596306, -0.014158133004804827, 0.0, 0.9992694786554169, -0.0382142182028567, 0.0006899677878785213, 0.0, 0.005766946337781409, 0.0945682286622691, 0.032738387767908064, 1.0], "children": [33]}, {"name": "middle_01_l", "matrix": [8.392173832057881e-06, -0.023889954967057495, -0.9997145700691407, 0.0, 0.0382157949831795, 0.998984181217395, -0.02387218277221434, 0.0, 0.9992694158674061, -0.038204694799711655, 0.0009213573632937097, 0.0, 0.003858239113931905, 0.09511763895377823, 0.012452916737044982, 1.0], "children": [34]}, {"name": "pinky_01_l", "matrix": [8.47568048262479e-06, -0.030851276042861097, -0.999524146925634, 0.0, 0.0382037618434137, 0.9987946057262567, -0.03082843361294459, 0.0, 0.999270099093117, -0.03818531138290944, 0.0011870999765795638, 0.0, 0.0051609422581275766, 0.08422993640600118, -0.02958979637249079, 1.0], "children": [35]}, {"name": "ring_01_l", "matrix": [0.0002622609882667453, 0.005102014238547375, -0.999986955090571, 0.0, 0.03822844158669123, 0.9992558032077813, 0.005108311071806465, 0.0, 0.9992690351574298, -0.038229294033497195, 6.702368249163928e-05, 0.0, 0.003991578299954668, 0.09189682758128292, -0.010390978581960031, 1.0], "children": [36]}, {"name": "thumb_01_l", "matrix": [-0.8740051895628229, 0.43675556482105454, 0.21297821565403838, 0.0, 0.48591396162351314, 0.7871107155175964, 0.37992775864874806, 0.0, -0.0017019416395638314, 0.4355477214878885, -0.9001642344006706, 0.0, 0.019194583260476517, 0.02361743395646776, 0.028680978283541048, 1.0], "children": [37]}, {"name": "index_01_r", "matrix": [0.0001479952156342922, 0.014174147517400338, 0.9998997307534624, 0.0, -0.03822015889164711, 0.9991693219829993, -0.014158131764520888, 0.0, -0.9992694790834518, -0.03821421974038453, 0.0006896103528215911, 0.0, -0.0057669430417368606, 0.09456823400306946, 0.03273837292039377, 1.0], "children": [38]}, {"name": "middle_01_r", "matrix": [8.273284660844408e-06, 0.02388995125314284, 0.9997145702033798, 0.0, -0.03821579588144788, 0.9989841812691969, -0.0238721854609819, 0.0, -0.9992694162616514, -0.038204693207005425, 0.0009212383105349936, 0.0, -0.003858236201047305, 0.09511763927969774, 0.012452914985375076, 1.0], "children": [39]}, {"name": "pinky_01_r", "matrix": [8.356813957595006e-06, 0.030851268610213457, 0.9995241473285172, 0.0, -0.038203761904222824, 0.9987946057551188, -0.030828432588830935, 0.0, -0.9992700992344214, -0.038185317422498394, 0.0011869807058745596, 0.0, -0.005160832516991176, 0.08422994504107029, -0.029589790667735733, 1.0], "children": [40]}, {"name": "ring_01_r", "matrix": [0.00026214201040010025, -0.005102017958195042, 0.9999869550813858, 0.0, -0.03822844220996818, 0.9992558032566583, 0.005108310704220948, 0.0, -0.9992690355991073, -0.03822929170019356, 6.690445034038805e-05, 0.0, -0.0039915699145527395, 0.0918968289853409, -0.010390968966392689, 1.0], "children": [41]}, {"name": "thumb_01_r", "matrix": [-0.8740051253863322, -0.43675547574549634, -0.21297819279901484, 0.0, -0.4859138630682911, 0.7871105638949396, 0.3799277424587031, 0.0, 0.0017019075389289138, 0.4355476422965699, -0.9001642441618889, 0.0, -0.019194637491316113, 0.023617401443610242, 0.028680969115700672, 1.0], "children": [42]}, {"name": "index_02_l", "matrix": [0.9999993848637425, -0.001066081682051585, -9.898210669987285e-05, 0.0, 0.0010660808362231177, 0.9999994611011123, 7.16979559122058e-07, 0.0, 9.898121082919933e-05, -8.27708934024279e-07, 0.9999999137750428, 0.0, 1.8865678498569682e-09, 0.024286612651807427, -1.826357154399716e-08, 1.0], "children": [43]}, {"name": "middle_02_l", "matrix": [0.9999916318140466, 0.0041056192155149804, -0.0001568065979322392, 0.0, -0.00410562071336887, 0.99999171394681, 1.445231875441767e-06, 0.0, 0.0001568111737932486, -8.06411550984948e-07, 1.0000001249984911, 0.0, 2.8524165460175332e-09, 0.03187315792339407, 2.6806000530399388e-08, 1.0], "children": [44]}, {"name": "pinky_02_l", "matrix": [0.9999951680070709, -0.0031348737906905814, -0.0001907219801930293, 0.0, 0.0031348773590290867, 0.9999951301649033, 4.962398074744032e-07, 0.0, 0.00019071929715865746, -1.089357770280881e-06, 1.000000042680866, 0.0, -2.809342647402957e-09, 0.020138301388287316, -1.499301465202052e-07, 1.0], "children": [45]}, {"name": "ring_02_l", "matrix": [0.9999883473458518, 0.004799514739789681, -0.00043708374832803745, 0.0, -0.004799518365479037, 0.9999883921133828, -8.426795814426121e-06, 0.0, 0.0004370382323670689, 1.0523132658410524e-05, 0.9999998489670988, 0.0, 3.7209120645753657e-09, 0.02795901763639841, -6.501182858720256e-08, 1.0], "children": [46]}, {"name": "thumb_02_l", "matrix": [0.9999999270047873, -6.42451252425448e-06, -9.420671538318945e-06, 0.0, 6.403261384204588e-06, 0.9999998478454798, 1.2403099171568484e-06, 0.0, 9.43929556041061e-06, -1.2201158960873067e-06, 0.9999998836694837, 0.0, -7.406272795051905e-08, 0.02903856261124299, 2.5887775312316563e-08, 1.0], "children": [47]}, {"name": "index_02_r", "matrix": [0.9999993846349651, 0.001066085406897164, 9.871822815186783e-05, 0.0, -0.0010660856535471817, 0.9999994611867824, 7.098283606840413e-07, 0.0, -9.871734375461204e-05, -8.239842354000609e-07, 0.9999999140463152, 0.0, -5.797420495057271e-10, 0.02428661264079146, -2.043872382451184e-08, 1.0], "children": [48]}, {"name": "middle_02_r", "matrix": [0.9999916318025719, -0.004105619215677702, 0.00015678103427225893, 0.0, 0.004105621688611477, 0.9999917142238913, 1.442014304488034e-06, 0.0, -0.00015678567922396098, -7.989665154940528e-07, 1.000000125121366, 0.0, 7.530892229268282e-10, 0.031873157906947225, 2.5196289055173793e-08, 1.0], "children": [49]}, {"name": "pinky_02_r", "matrix": [0.9999951677149643, 0.003134877515729767, 0.0001906960140989538, 0.0, -0.003134885687241633, 0.9999951303113519, 4.896720185837044e-07, 0.0, -0.00019069350014543527, -1.0819088910457605e-06, 1.0000000429397964, 0.0, -2.0287056895496036e-09, 0.020138301381205648, -7.634862431160627e-08, 1.0], "children": [50]}, {"name": "ring_02_r", "matrix": [0.9999883473985702, -0.004799511014957893, 0.000437057759895873, 0.0, 0.004799515165458227, 0.9999883921502838, -8.427053314320895e-06, 0.0, -0.00043701225145990316, 1.0523131150167804e-05, 0.9999998489766233, 0.0, -6.648239916917653e-09, 0.027959017624989424, -6.344582725859027e-08, 1.0], "children": [51]}, {"name": "thumb_02_r", "matrix": [1.0000000223147492, 6.3533751502755626e-06, 9.576533398750625e-06, 0.0, -6.3299761332181585e-06, 0.9999998528513417, 1.3279527002587264e-06, 0.0, -9.613008360460423e-06, -1.300494833496259e-06, 0.9999999499977852, 0.0, 3.34574412619304e-09, 0.02903856768480978, 1.1493293650133296e-08, 1.0], "children": [52]}, {"name": "index_03_l", "matrix": [0.9999999820232228, -0.00037132143545436466, 1.4291034967536839e-05, 0.0, 0.0003713211385151506, 1.0000000168227752, 3.888022330606019e-06, 0.0, -1.4292493061886372e-05, -3.882024642172509e-06, 1.000000089741677, 0.0, -8.262095105293632e-10, 0.02167070263212867, 1.2343659672175988e-07, 1.0]}, {"name": "middle_03_l", "matrix": [0.9999959092383982, -0.002839657041093656, 0.00010865988641616365, 0.0, 0.0028396570552504065, 0.9999958761342758, -7.846766245886523e-07, 0.0, -0.00010865712230502169, 1.0915325938413212e-06, 0.9999999694354326, 0.0, -5.25893399661026e-09, 0.026090468576963843, -1.3252603014990427e-07, 1.0]}, {"name": "pinky_03_l", "matrix": [0.9999994409207179, 0.0009320112864651419, 0.00027488896001320683, 0.0, -0.0009320236366962868, 0.9999994918781125, 6.572780983208649e-06, 0.0, -0.00027488249632592757, -6.829193581820435e-06, 0.9999998060357324, 0.0, 3.386364522128815e-10, 0.01466207438373146, 7.256894374307876e-08, 1.0]}, {"name": "ring_03_l", "matrix": [0.9999769275592513, -0.006775066588895146, 0.000505926116384721, 0.0, 0.006775062451451473, 0.99997705872915, 9.416387154537412e-06, 0.0, -0.0005059782569652184, -5.983512074203787e-06, 0.9999999279825754, 0.0, -4.0521696137441054e-09, 0.023345521326512797, -8.229817094473901e-08, 1.0]}, {"name": "thumb_03_l", "matrix": [0.9999999825500488, 3.4212437427673797e-06, 5.945476769274888e-05, 0.0, -3.423774457361688e-06, 0.9999999593784894, -1.1571927795448186e-07, 0.0, -5.948614867264048e-05, 6.377468128676738e-08, 0.9999999112126509, 0.0, 8.240891746780221e-09, 0.03400426015900927, -3.460436870383887e-08, 1.0]}, {"name": "index_03_r", "matrix": [0.9999999820221699, 0.0003713214355846718, -1.4291093221847214e-05, 0.0, -0.0003713211364323805, 1.0000000166803749, 3.891746261776921e-06, 0.0, 1.4292547079561054e-05, -3.88574720932643e-06, 1.0000000895992693, 0.0, 7.655390557581576e-10, 0.02167070262038462, 1.2599672927215977e-07, 1.0]}, {"name": "middle_03_r", "matrix": [0.9999959091987592, 0.0028396589032412757, -0.00010865982822116913, 0.0, -0.0028396589203598045, 0.9999958760921654, -7.846779410867258e-07, 0.0, 0.00010865708245207136, 1.0915341433104394e-06, 0.9999999694354692, 0.0, 7.356035572336772e-10, 0.02609046855647379, -1.325292369180886e-07, 1.0]}, {"name": "pinky_03_r", "matrix": [0.9999994409067123, -0.0009320150094253929, -0.00027488871374566477, 0.0, 0.0009320236341347709, 0.9999994920046039, 6.580223081367292e-06, 0.0, 0.00027488239034729843, -6.829198238080158e-06, 0.9999998057512953, 0.0, -2.5540251857858465e-10, 0.014662074375598189, 7.601034979209942e-08, 1.0]}, {"name": "ring_03_r", "matrix": [0.9999769276944128, 0.006775067286316299, -0.000505687655410817, 0.0, -0.006775062485420146, 0.9999770587311115, 9.417134196537337e-06, 0.0, 0.0005057398280954761, -5.9851271321011716e-06, 0.9999999281355978, 0.0, -5.242557776785617e-11, 0.02334552131648593, -9.750279361675496e-08, 1.0]}, {"name": "thumb_03_r", "matrix": [0.9999999797117112, -3.3951962929748903e-06, -5.9402997663274345e-05, 0.0, 3.428624547895694e-06, 0.9999999738597418, -8.594497540226849e-08, 0.0, 5.9406106866046896e-05, 6.372556833223419e-08, 0.9999999777535775, 0.0, -1.4498412292951457e-07, 0.03400426592959263, -5.8172955341717625e-09, 1.0]}, {"name": "Body", "mesh": 0, "skin": 0}, {"name": "Eyes", "mesh": 1, "skin": 0}, {"name": "Eyebrows", "mesh": 2, "skin": 0}, {"name": "Eyelashes", "mesh": 3, "skin": 0}, {"name": "Teeth", "mesh": 4, "skin": 0}], "skins": [{"joints": [0, 1, 2, 3, 4, 5, 6, 7, 8, 9, 10, 11, 12, 13, 14, 15, 16, 17, 18, 19, 20, 21, 22, 23, 24, 25, 26, 27, 28, 29, 30, 31, 32, 33, 34, 35, 36, 37, 38, 39, 40, 41, 42, 43, 44, 45, 46, 47, 48, 49, 50, 51, 52], "inverseBindMatrices": 0, "skeleton": 0}], "meshes": [{"name": "Body", "primitives": [{"attributes": {"POSITION": 1, "NORMAL": 2, "TEXCOORD_0": 3, "JOINTS_0": 4, "WEIGHTS_0": 5}, "indices": 6, "material": 0}]}, {"name": "Eyes", "primitives": [{"attributes": {"POSITION": 7, "NORMAL": 8, "TEXCOORD_0": 9, "JOINTS_0": 10, "WEIGHTS_0": 11}, "indices": 12, "material": 1}]}, {"name": "Eyebrows", "primitives": [{"attributes": {"POSITION": 13, "NORMAL": 14, "TEXCOORD_0": 15, "JOINTS_0": 16, "WEIGHTS_0": 17}, "indices": 18, "material": 2}]}, {"name": "Eyelashes", "primitives": [{"attributes": {"POSITION": 19, "NORMAL": 20, "TEXCOORD_0": 21, "JOINTS_0": 22, "WEIGHTS_0": 23}, "indices": 24, "material": 3}]}, {"name": "Teeth", "primitives": [{"attributes": {"POSITION": 25, "NORMAL": 26, "TEXCOORD_0": 27, "JOINTS_0": 28, "WEIGHTS_0": 29}, "indices": 30, "material": 4}]}], "materials": [{"name": "Skin_Female", "pbrMetallicRoughness": {"metallicFactor": 0.0, "roughnessFactor": 0.6, "baseColorTexture": {"index": 0}}, "doubleSided": true, "alphaMode": "OPAQUE"}, {"name": "Eyes", "pbrMetallicRoughness": {"metallicFactor": 0.0, "roughnessFactor": 0.6, "baseColorTexture": {"index": 1}}, "doubleSided": true, "alphaMode": "BLEND"}, {"name": "Brows_Female", "pbrMetallicRoughness": {"metallicFactor": 0.0, "roughnessFactor": 0.6, "baseColorTexture": {"index": 2}}, "doubleSided": true, "alphaMode": "BLEND"}, {"name": "Lashes", "pbrMetallicRoughness": {"metallicFactor": 0.0, "roughnessFactor": 0.6, "baseColorTexture": {"index": 3}}, "doubleSided": true, "alphaMode": "BLEND"}, {"name": "Teeth", "pbrMetallicRoughness": {"metallicFactor": 0.0, "roughnessFactor": 0.6, "baseColorTexture": {"index": 4}}, "doubleSided": true, "alphaMode": "BLEND"}], "images": [{"uri": "middleage_lightskinned_female_diffuse.png"}, {"uri": "brown_eye.png"}, {"uri": "eyebrow006.png"}, {"uri": "eyelashes01.png"}, {"uri": "teeth.png"}], "textures": [{"source": 0}, {"source": 1}, {"source": 2}, {"source": 3}, {"source": 4}], "buffers": [{"uri": "Female_FullBody.bin", "byteLength": 1599240}], "bufferViews": [{"buffer": 0, "byteOffset": 0, "byteLength": 3392}, {"buffer": 0, "byteOffset": 3392, "byteLength": 174204, "target": 34962}, {"buffer": 0, "byteOffset": 177596, "byteLength": 174204, "target": 34962}, {"buffer": 0, "byteOffset": 351800, "byteLength": 116136, "target": 34962}, {"buffer": 0, "byteOffset": 467936, "byteLength": 116136, "target": 34962}, {"buffer": 0, "byteOffset": 584072, "byteLength": 232272, "target": 34962}, {"buffer": 0, "byteOffset": 816344, "byteLength": 321072, "target": 34963}, {"buffer": 0, "byteOffset": 1137416, "byteLength": 12912, "target": 34962}, {"buffer": 0, "byteOffset": 1150328, "byteLength": 12912, "target": 34962}, {"buffer": 0, "byteOffset": 1163240, "byteLength": 8608, "target": 34962}, {"buffer": 0, "byteOffset": 1171848, "byteLength": 8608, "target": 34962}, {"buffer": 0, "byteOffset": 1180456, "byteLength": 17216, "target": 34962}, {"buffer": 0, "byteOffset": 1197672, "byteLength": 24480, "target": 34963}, {"buffer": 0, "byteOffset": 1222152, "byteLength": 1512, "target": 34962}, {"buffer": 0, "byteOffset": 1223664, "byteLength": 1512, "target": 34962}, {"buffer": 0, "byteOffset": 1225176, "byteLength": 1008, "target": 34962}, {"buffer": 0, "byteOffset": 1226184, "byteLength": 1008, "target": 34962}, {"buffer": 0, "byteOffset": 1227192, "byteLength": 2016, "target": 34962}, {"buffer": 0, "byteOffset": 1229208, "byteLength": 2304, "target": 34963}, {"buffer": 0, "byteOffset": 1231512, "byteLength": 3000, "target": 34962}, {"buffer": 0, "byteOffset": 1234512, "byteLength": 3000, "target": 34962}, {"buffer": 0, "byteOffset": 1237512, "byteLength": 2000, "target": 34962}, {"buffer": 0, "byteOffset": 1239512, "byteLength": 2000, "target": 34962}, {"buffer": 0, "byteOffset": 1241512, "byteLength": 4000, "target": 34962}, {"buffer": 0, "byteOffset": 1245512, "byteLength": 4416, "target": 34963}, {"buffer": 0, "byteOffset": 1249928, "byteLength": 56544, "target": 34962}, {"buffer": 0, "byteOffset": 1306472, "byteLength": 56544, "target": 34962}, {"buffer": 0, "byteOffset": 1363016, "byteLength": 37696, "target": 34962}, {"buffer": 0, "byteOffset": 1400712, "byteLength": 37696, "target": 34962}, {"buffer": 0, "byteOffset": 1438408, "byteLength": 75392, "target": 34962}, {"buffer": 0, "byteOffset": 1513800, "byteLength": 85440, "target": 34963}], "accessors": [{"bufferView": 0, "componentType": 5126, "count": 53, "type": "MAT4"}, {"bufferView": 1, "componentType": 5126, "count": 14517, "type": "VEC3", "min": [-0.8109500408172607, 0.053146738559007645, -0.1773327887058258], "max": [0.8109500408172607, 1.7119115591049194, 0.10541332513093948]}, {"bufferView": 2, "componentType": 5126, "count": 14517, "type": "VEC3"}, {"bufferView": 3, "componentType": 5126, "count": 14517, "type": "VEC2"}, {"bufferView": 4, "componentType": 5123, "count": 14517, "type": "VEC4"}, {"bufferView": 5, "componentType": 5126, "count": 14517, "type": "VEC4"}, {"bufferView": 6, "componentType": 5125, "count": 80268, "type": "SCALAR"}, {"bufferView": 7, "componentType": 5126, "count": 1076, "type": "VEC3", "min": [-0.04563671723008156, 1.5824588537216187, -0.00202833185903728], "max": [0.04563671723008156, 1.6133437156677246, 0.02226077765226364]}, {"bufferView": 8, "componentType": 5126, "count": 1076, "type": "VEC3"}, {"bufferView": 9, "componentType": 5126, "count": 1076, "type": "VEC2"}, {"bufferView": 10, "componentType": 5123, "count": 1076, "type": "VEC4"}, {"bufferView": 11, "componentType": 5126, "count": 1076, "type": "VEC4"}, {"bufferView": 12, "componentType": 5125, "count": 6120, "type": "SCALAR"}, {"bufferView": 13, "componentType": 5126, "count": 126, "type": "VEC3", "min": [-0.0563477948307991, 1.6028622388839722, 0.003469074610620737], "max": [0.0563477985560894, 1.6143523454666138, 0.0326385460793972]}, {"bufferView": 14, "componentType": 5126, "count": 126, "type": "VEC3"}, {"bufferView": 15, "componentType": 5126, "count": 126, "type": "VEC2"}, {"bufferView": 16, "componentType": 5123, "count": 126, "type": "VEC4"}, {"bufferView": 17, "componentType": 5126, "count": 126, "type": "VEC4"}, {"bufferView": 18, "componentType": 5125, "count": 576, "type": "SCALAR"}, {"bufferView": 19, "componentType": 5126, "count": 250, "type": "VEC3", "min": [-0.048576533794403076, 1.5877045392990112, 0.01391344703733921], "max": [0.048576533794403076, 1.6031020879745483, 0.02673223800957203]}, {"bufferView": 20, "componentType": 5126, "count": 250, "type": "VEC3"}, {"bufferView": 21, "componentType": 5126, "count": 250, "type": "VEC2"}, {"bufferView": 22, "componentType": 5123, "count": 250, "type": "VEC4"}, {"bufferView": 23, "componentType": 5126, "count": 250, "type": "VEC4"}, {"bufferView": 24, "componentType": 5125, "count": 1104, "type": "SCALAR"}, {"bufferView": 25, "componentType": 5126, "count": 4712, "type": "VEC3", "min": [-0.03014048933982849, 1.508184552192688, -0.050403352826833725], "max": [0.03014017455279827, 1.553695559501648, 0.02470853552222252]}, {"bufferView": 26, "componentType": 5126, "count": 4712, "type": "VEC3"}, {"bufferView": 27, "componentType": 5126, "count": 4712, "type": "VEC2"}, {"bufferView": 28, "componentType": 5123, "count": 4712, "type": "VEC4"}, {"bufferView": 29, "componentType": 5126, "count": 4712, "type": "VEC4"}, {"bufferView": 30, "componentType": 5125, "count": 21360, "type": "SCALAR"}]}