{"asset": {"version": "2.0", "generator": "Riptide mh_export.py (MakeHuman 1.2.0, CC0)"}, "scene": 0, "scenes": [{"nodes": [0, 53]}], "nodes": [{"name": "root", "matrix": [1.0, -0.0, -0.0, 0.0, 0.0, 0.0, -1.0, 0.0, 0.0, 1.0, 0.0, 0.0, 0.0, 0.026854991912841797, -0.02675866484642029, 1.0], "children": [1]}, {"name": "pelvis", "matrix": [1.0, 0.0, 0.0, 0.0, 0.0, -0.28182795305259145, 0.9594649557252006, 0.0, 0.0, -0.9594649557252006, -0.2818279232502694, 0.0, -4.656612873077393e-11, -0.048587466776371005, 0.8924985408782959, 1.0], "children": [2, 3, 4]}, {"name": "spine_01", "matrix": [1.0, 0.0, 0.0, 0.0, 0.0, 0.9831248444923985, -0.1829357037887136, 0.0, 0.0, 0.1829357027347443, 0.9831248391197471, 0.0, 4.656612873077393e-11, 0.05176820158198869, -0.06113719291614991, 1.0], "children": [5]}, {"name": "thigh_l", "matrix": [1.0, 0.0, 0.0, 0.0, 0.0, -0.9595306548844835, 0.28160413362328157, 0.0, 0.0, -0.28160412666799667, -0.9595326361135966, 0.0, 0.095542906110442, 0.019372644874848133, 0.0004077411416153198, 1.0], "children": [6]}, {"name": "thigh_r", "matrix": [1.0, 0.0, 0.0, 0.0, 0.0, -0.9595306548844835, 0.28160413362328157, 0.0, 0.0, -0.28160412666799667, -0.9595326361135966, 0.0, -0.09554290602037879, 0.01937264485658663, 0.0004077411412310161, 1.0], "children": [7]}, {"name": "spine_02", "matrix": [1.0, 0.0, 0.0, 0.0, 0.0, 0.9968659834449076, -0.07910865220648959, 0.0, 0.0, 0.07910865070087449, 0.996866041143112, 0.0, -4.656612873077393e-11, 0.06758384683736396, 0.013957504191255202, 1.0], "children": [8]}, {"name": "calf_l", "matrix": [1.0, 0.0, 0.0, 0.0, 0.0, 0.9937304983103664, 0.11180222878815584, 0.0, 0.0, -0.11180222187708337, 0.9937305098962386, 0.0, -7.181745545481455e-09, 0.4133279092296268, 6.369148479457021e-09, 1.0], "children": [9]}, {"name": "calf_r", "matrix": [1.0, 0.0, 0.0, 0.0, 0.0, 0.9937304983103664, 0.11180222878815584, 0.0, 0.0, -0.11180222187708337, 0.9937305098962386, 0.0, 7.181745545481455e-09, 0.4133279092296269, 6.369148479457021e-09, 1.0], "children": [10]}, {"name": "spine_03", "matrix": [1.0, 0.0, 0.0, 0.0, 0.0, 0.9691541756364928, -0.2464551675555634, 0.0, 0.0, 0.24645515915910746, 0.9691541125348847, 0.0, 0.0, 0.09152443903289864, 0.00987612323553284, 1.0], "children": [11, 12, 13]}, {"name": "foot_l", "matrix": [0.9999999999997726, -4.475174645732328e-07, -1.6462690428805675e-07, 0.0, 2.500657913453526e-16, 0.3452474751385285, -0.9385117245755802, 0.0, 4.768373806379758e-07, 0.938511708636584, 0.34524744898492205, 0.0, 3.6384557727808797e-09, 0.3991815235300368, 6.760059387267425e-09, 1.0], "children": [14]}, {"name": "foot_r", "matrix": [0.9999999999997726, 4.475174645732328e-07, 1.6462690428805675e-07, 0.0, -2.500657913453526e-16, 0.3452474751385285, -0.9385117245755802, 0.0, -4.768373806379758e-07, 0.938511708636584, 0.34524744898492205, 0.0, -3.6384557727808797e-09, 0.39918152353003683, 6.760059387267425e-09, 1.0], "children": [15]}, {"name": "clavicle_l", "matrix": [0.44090970537951346, -0.20151732811860007, 0.8746367479483216, 0.0, 0.8975512642015868, 0.09839931142799958, -0.4297896945615732, 0.0, 0.0005464107095213261, 0.9745298650557846, 0.2242573703400093, 0.0, 0.03964841373276787, 0.21935125667265698, 0.08501487389125828, 1.0], "children": [16]}, {"name": "clavicle_r", "matrix": [0.44090970537951346, 0.20151732811860007, -0.8746367479483216, 0.0, -0.8975512642015868, 0.09839931142799958, -0.4297896945615732, 0.0, -0.0005464107095213261, 0.9745298650557846, 0.2242573703400093, 0.0, -0.03964841373123373, 0.21935125666416933, 0.08501487388796874, 1.0], "children": [17]}, {"name": "neck_01", "matrix": [1.0, 0.0, 0.0, 0.0, 0.0, 0.867635441150603, 0.49720092500542185, 0.0, 0.0, -0.4972009250054219, 0.867635441150603, 0.0, 4.656612873077393e-11, 0.30092469522088083, 0.05863896971789856, 1.0], "children": [18]}, {"name": "ball_l", "matrix": [-1.0000000000000295, 3.9184720595691875e-08, -3.9868792861755566e-07, 0.0, 2.1372796042548726e-07, 0.8939237709768177, -0.44821975144087345, 0.0, 3.388331248834094e-07, -0.4482196266803838, -0.8939234460546244, 0.0, -4.4353047207179586e-09, 0.12803367699977936, -6.757083934050279e-09, 1.0]}, {"name": "ball_r", "matrix": [-1.0000000000000295, -3.9184720595691875e-08, 3.9868792861755566e-07, 0.0, -2.1372796042548726e-07, 0.8939237709768177, -0.44821975144087345, 0.0, -3.388331248834094e-07, -0.4482196266803838, -0.8939234460546244, 0.0, 4.4353047207179586e-09, 0.12803367699977936, -6.7570839479280664e-09, 1.0]}, {"name": "upperarm_l", "matrix": [4.271718599277604e-05, 0.0005906258180756311, -0.9999995996408645, 0.0, 0.4135430603129418, 0.910483869360261, 0.000555378787204489, 0.0, 0.9104843720213643, -0.4135431236782232, -0.00020537611557129584, 0.0, -0.005908537255828655, 0.13306193718966247, -0.025657539590990375, 1.0], "children": [19]}, {"name": "upperarm_r", "matrix": [4.280658140566956e-05, -0.0005905960415321794, 0.9999995996448136, 0.0, -0.4135430603129367, 0.9104838693601925, 0.0005553789033158366, 0.0, -0.9104843720089062, -0.4135431237461778, -0.0002052569064388353, 0.0, 0.005908538370703348, 0.13306193633363322, -0.025657543773683678, 1.0], "children": [20]}, {"name": "Head", "matrix": [1.0, 0.0, 0.0, 0.0, 0.0, 0.9651150691561732, -0.26182638981799156, 0.0, 0.0, 0.2618264183425684, 0.9651150605232659, 0.0, -4.656612873077393e-11, 0.1151560963368865, 0.006507684899726918, 1.0]}, {"name": "lowerarm_l", "matrix": [0.9999999999185, 5.9586026532572114e-08, -8.327251265869174e-05, 0.0, 5.056408641623624e-06, 0.9981111185234146, 0.06143542239319216, 0.0, 8.311888133145759e-05, -0.061435422089130644, 0.99811112737018, 0.0, -4.94344793988688e-08, 0.25162070811358817, -4.995035855423491e-09, 1.0], "children": [21]}, {"name": "lowerarm_r", "matrix": [0.9999999999162562, -5.947034769907321e-08, 8.33917225101934e-05, 0.0, -5.063847294257254e-06, 0.9981111185234148, 0.06143542239319224, 0.0, -8.323786551479043e-05, -0.06143542208913077, 0.9981111273700605, 0.0, 5.6424174665892224e-08, 0.2516207081135882, -1.2059683647536179e-08, 1.0], "children": [22]}, {"name": "hand_l", "matrix": [1.0000000000001246, -5.083041131869454e-09, 8.345326201420441e-07, 0.0, 3.1117584073566076e-08, 0.9995131471109641, -0.031199518578094464, 0.0, -8.339676685253797e-07, 0.031199518494493976, 0.9995130827994165, 0.0, -3.954511917925174e-08, 0.22568256316397184, 7.72479075150656e-09, 1.0], "children": [23, 24, 25, 26, 27]}, {"name": "hand_r", "matrix": [1.000000000000053, 1.3646856485157013e-09, -9.536910603183343e-07, 0.0, -3.11187173892438e-08, 0.9995131471109638, -0.031199518578094464, 0.0, 9.531841310031322e-07, 0.031199518494508947, 0.9995130827993217, 0.0, 3.2320919052253316e-08, 0.22568256316397178, 1.2647586485059481e-08, 1.0], "children": [28, 29, 30, 31, 32]}, {"name": "index_01_l", "matrix": [0.00014835284205562483, -0.014174158495876632, -0.9998997302983847, 0.0, 0.03822015649944209, 0.9991693219596306, -0.014158133004804827, 0.0, 0.9992694786554169, -0.0382142182028567, 0.0006899677878785213, 0.0, 0.005766946337781409, 0.094568228662269, 0.03273838776790806, 1.0], "children": [33]}, {"name": "middle_01_l", "matrix": [8.392173832057881e-06, -0.023889954967057495, -0.9997145700691407, 0.0, 0.0382157949831795, 0.998984181217395, -0.02387218277221434, 0.0, 0.9992694158674061, -0.038204694799711655, 0.0009213573632937097, 0.0, 0.003858239113932127, 0.09511763895377823, 0.012452916737044979, 1.0], "children": [34]}, {"name": "pinky_01_l", "matrix": [8.47568048262479e-06, -0.030851276042861097, -0.999524146925634, 0.0, 0.0382037618434137, 0.9987946057262567, -0.03082843361294459, 0.0, 0.999270099093117, -0.03818531138290944, 0.0011870999765795638, 0.0, 0.0051609422581275766, 0.08422993640600096, -0.02958979637249078, 1.0], "children": [35]}, {"name": "ring_01_l", "matrix": [0.0002622609882667453, 0.005102014238547375, -0.999986955090571, 0.0, 0.03822844158669123, 0.9992558032077813, 0.005108311071806465, 0.0, 0.9992690351574298, -0.038229294033497195, 6.702368249163928e-05, 0.0, 0.003991578299954668, 0.09189682758128281, -0.010390978581960041, 1.0], "children": [36]}, {"name": "thumb_01_l", "matrix": [-0.8740051895628229, 0.43675556482105454, 0.21297821565403838, 0.0, 0.48591396162351314, 0.7871107155175964, 0.37992775864874806, 0.0, -0.0017019416395638314, 0.4355477214878885, -0.9001642344006706, 0.0, 0.019194583260476517, 0.02361743395646776, 0.02868097828354104, 1.0], "children": [37]}, {"name": "index_01_r", "matrix": [0.0001479952156342922, 0.014174147517400338, 0.9998997307534624, 0.0, -0.03822015889164711, 0.9991693219829993, -0.014158131764520888, 0.0, -0.9992694790834518, -0.03821421974038453, 0.0006896103528215911, 0.0, -0.0057669430417364165, 0.09456823400306946, 0.03273837292039377, 1.0], "children": [38]}, {"name": "middle_01_r", "matrix": [8.273284660844408e-06, 0.02388995125314284, 0.9997145702033798, 0.0, -0.03821579588144788, 0.9989841812691969, -0.0238721854609819, 0.0, -0.9992694162616514, -0.038204693207005425, 0.0009212383105349936, 0.0, -0.0038582362010468607, 0.09511763927969785, 0.012452914985375079, 1.0], "children": [39]}, {"name": "pinky_01_r", "matrix": [8.356813957595006e-06, 0.030851268610213457, 0.9995241473285172, 0.0, -0.038203761904222824, 0.9987946057551188, -0.030828432588830935, 0.0, -0.9992700992344214, -0.038185317422498394, 0.0011869807058745596, 0.0, -0.005160832516990954, 0.08422994504107029, -0.029589790667735743, 1.0], "children": [40]}, {"name": "ring_01_r", "matrix": [0.00026214201040010025, -0.005102017958195042, 0.9999869550813858, 0.0, -0.03822844220996818, 0.9992558032566583, 0.005108310704220948, 0.0, -0.9992690355991073, -0.03822929170019356, 6.690445034038805e-05, 0.0, -0.003991569914552517, 0.0918968289853409, -0.010390968966392692, 1.0], "children": [41]}, {"name": "thumb_01_r", "matrix": [-0.8740051253863322, -0.43675547574549634, -0.21297819279901484, 0.0, -0.4859138630682911, 0.7871105638949396, 0.3799277424587031, 0.0, 0.0017019075389289138, 0.4355476422965699, -0.9001642441618889, 0.0, -0.019194637491316113, 0.023617401443610242, 0.02868096911570068, 1.0], "children": [42]}, {"name": "index_02_l", "matrix": [0.9999993848637425, -0.001066081682051585, -9.898210669987285e-05, 0.0, 0.0010660808362231177, 0.9999994611011123, 7.16979559122058e-07, 0.0, 9.898121082919933e-05, -8.27708934024279e-07, 0.9999999137750428, 0.0, 1.886567853326415e-09, 0.024286612651807093, -1.826357154399716e-08, 1.0], "children": [43]}, {"name": "middle_02_l", "matrix": [0.9999916318140466, 0.0041056192155149804, -0.0001568065979322392, 0.0, -0.00410562071336887, 0.99999171394681, 1.445231875441767e-06, 0.0, 0.0001568111737932486, -8.06411550984948e-07, 1.0000001249984911, 0.0, 2.85241654948698e-09, 0.03187315792339418, 2.6806000530399388e-08, 1.0], "children": [44]}, {"name": "pinky_02_l", "matrix": [0.9999951680070709, -0.0031348737906905814, -0.0001907219801930293, 0.0, 0.0031348773590290867, 0.9999951301649033, 4.962398074744032e-07, 0.0, 0.00019071929715865746, -1.089357770280881e-06, 1.000000042680866, 0.0, -2.80934264393351e-09, 0.020138301388287427, -1.499301465202052e-07, 1.0], "children": [45]}, {"name": "ring_02_l", "matrix": [0.9999883473458518, 0.004799514739789681, -0.00043708374832803745, 0.0, -0.004799518365479037, 0.9999883921133828, -8.426795814426121e-06, 0.0, 0.0004370382323670689, 1.0523132658410524e-05, 0.9999998489670988, 0.0, 3.7209120645753657e-09, 0.027959017636398187, -6.501182858720256e-08, 1.0], "children": [46]}, {"name": "thumb_02_l", "matrix": [0.9999999270047873, -6.42451252425448e-06, -9.420671538318945e-06, 0.0, 6.403261384204588e-06, 0.9999998478454798, 1.2403099171568484e-06, 0.0, 9.43929556041061e-06, -1.2201158960873067e-06, 0.9999998836694837, 0.0, -7.406272795051905e-08, 0.02903856261124288, 2.5887775256805412e-08, 1.0], "children": [47]}, {"name": "index_02_r", "matrix": [0.9999993846349651, 0.001066085406897164, 9.871822815186783e-05, 0.0, -0.0010660856535471817, 0.9999994611867824, 7.098283606840413e-07, 0.0, -9.871734375461204e-05, -8.239842354000609e-07, 0.9999999140463152, 0.0, -5.79742052975174e-10, 0.02428661264079135, -2.0438724046556445e-08, 1.0], "children": [48]}, {"name": "middle_02_r", "matrix": [0.9999916318025719, -0.004105619215677702, 0.00015678103427225893, 0.0, 0.004105621688611477, 0.9999917142238913, 1.442014304488034e-06, 0.0, -0.00015678567922396098, -7.989665154940528e-07, 1.000000125121366, 0.0, 7.530892298657221e-10, 0.031873157906947225, 2.5196288611084583e-08, 1.0], "children": [49]}, {"name": "pinky_02_r", "matrix": [0.9999951677149643, 0.003134877515729767, 0.0001906960140989538, 0.0, -0.003134885687241633, 0.9999951303113519, 4.896720185837044e-07, 0.0, -0.00019069350014543527, -1.0819088910457605e-06, 1.0000000429397964, 0.0, -2.0287056826107097e-09, 0.02013830138120576, -7.634862431160627e-08, 1.0], "children": [50]}, {"name": "ring_02_r", "matrix": [0.9999883473985702, -0.004799511014957893, 0.000437057759895873, 0.0, 0.004799515165458227, 0.9999883921502838, -8.427053314320895e-06, 0.0, -0.00043701225145990316, 1.0523131150167804e-05, 0.9999998489766233, 0.0, -6.648239923856547e-09, 0.027959017624989424, -6.344582748063488e-08, 1.0], "children": [51]}, {"name": "thumb_02_r", "matrix": [1.0000000223147492, 6.3533751502755626e-06, 9.576533398750625e-06, 0.0, -6.3299761332181585e-06, 0.9999998528513417, 1.3279527002587264e-06, 0.0, -9.613008360460423e-06, -1.300494833496259e-06, 0.9999999499977852, 0.0, 3.345743904148435e-09, 0.029038567684809738, 1.1493293705644447e-08, 1.0], "children": [52]}, {"name": "index_03_l", "matrix": [0.9999999820232228, -0.00037132143545436466, 1.4291034967536839e-05, 0.0, 0.0003713211385151506, 1.0000000168227752, 3.888022330606019e-06, 0.0, -1.4292493061886372e-05, -3.882024642172509e-06, 1.000000089741677, 0.0, -8.262095139988102e-10, 0.02167070263212867, 1.234365969438045e-07, 1.0]}, {"name": "middle_03_l", "matrix": [0.9999959092383982, -0.002839657041093656, 0.00010865988641616365, 0.0, 0.0028396570552504065, 0.9999958761342758, -7.846766245886523e-07, 0.0, -0.00010865712230502169, 1.0915325938413212e-06, 0.9999999694354326, 0.0, -5.258934007018601e-09, 0.026090468576963954, -1.3252603037194888e-07, 1.0]}, {"name": "pinky_03_l", "matrix": [0.9999994409207179, 0.0009320112864651419, 0.00027488896001320683, 0.0, -0.0009320236366962868, 0.9999994918781125, 6.572780983208649e-06, 0.0, -0.00027488249632592757, -6.829193581820435e-06, 0.9999998060357324, 0.0, 3.386364626212224e-10, 0.014662074383731571, 7.256894374307876e-08, 1.0]}, {"name": "ring_03_l", "matrix": [0.9999769275592513, -0.006775066588895146, 0.000505926116384721, 0.0, 0.006775062451451473, 0.99997705872915, 9.416387154537412e-06, 0.0, -0.0005059782569652184, -5.983512074203787e-06, 0.9999999279825754, 0.0, -4.0521696137441054e-09, 0.023345521326512575, -8.229817094473901e-08, 1.0]}, {"name": "thumb_03_l", "matrix": [0.9999999825500488, 3.4212437427673797e-06, 5.945476769274888e-05, 0.0, -3.423774457361688e-06, 0.9999999593784894, -1.1571927795448186e-07, 0.0, -5.948614867264048e-05, 6.377468128676738e-08, 0.9999999112126509, 0.0, 8.240891746780221e-09, 0.03400426015900916, -3.4604368759350024e-08, 1.0]}, {"name": "index_03_r", "matrix": [0.9999999820221699, 0.0003713214355846718, -1.4291093221847214e-05, 0.0, -0.0003713211364323805, 1.0000000166803749, 3.891746261776921e-06, 0.0, 1.4292547079561054e-05, -3.88574720932643e-06, 1.0000000895992693, 0.0, 7.655390696359454e-10, 0.02167070262038462, 1.2599672927215977e-07, 1.0]}, {"name": "middle_03_r", "matrix": [0.9999959091987592, 0.0028396589032412757, -0.00010865982822116913, 0.0, -0.0028396589203598045, 0.9999958760921654, -7.846779410867258e-07, 0.0, 0.00010865708245207136, 1.0915341433104394e-06, 0.9999999694354692, 0.0, 7.356035607031242e-10, 0.0260904685564739, -1.325292371401332e-07, 1.0]}, {"name": "pinky_03_r", "matrix": [0.9999994409067123, -0.0009320150094253929, -0.00027488871374566477, 0.0, 0.0009320236341347709, 0.9999994920046039, 6.580223081367292e-06, 0.0, 0.00027488239034729843, -6.829198238080158e-06, 0.9999998057512953, 0.0, -2.554025012313499e-10, 0.014662074375597967, 7.601034979209942e-08, 1.0]}, {"name": "ring_03_r", "matrix": [0.9999769276944128, 0.006775067286316299, -0.000505687655410817, 0.0, -0.006775062485420146, 0.9999770587311115, 9.417134196537337e-06, 0.0, 0.0005057398280954761, -5.9851271321011716e-06, 0.9999999281355978, 0.0, -5.2425591645643976e-11, 0.023345521316485818, -9.750279361675496e-08, 1.0]}, {"name": "thumb_03_r", "matrix": [0.9999999797117112, -3.3951962929748903e-06, -5.9402997663274345e-05, 0.0, 3.428624547895694e-06, 0.9999999738597418, -8.594497540226849e-08, 0.0, 5.9406106866046896e-05, 6.372556833223419e-08, 0.9999999777535775, 0.0, -1.4498412270746996e-07, 0.03400426592959267, -5.8172955341717625e-09, 1.0]}, {"name": "Hair", "mesh": 0, "skin": 0}], "skins": [{"joints": [0, 1, 2, 3, 4, 5, 6, 7, 8, 9, 10, 11, 12, 13, 14, 15, 16, 17, 18, 19, 20, 21, 22, 23, 24, 25, 26, 27, 28, 29, 30, 31, 32, 33, 34, 35, 36, 37, 38, 39, 40, 41, 42, 43, 44, 45, 46, 47, 48, 49, 50, 51, 52], "inverseBindMatrices": 0, "skeleton": 0}], "meshes": [{"name": "Hair", "primitives": [{"attributes": {"POSITION": 1, "NORMAL": 2, "TEXCOORD_0": 3, "JOINTS_0": 4, "WEIGHTS_0": 5}, "indices": 6, "material": 0}]}], "materials": [{"name": "Hair_short04", "pbrMetallicRoughness": {"metallicFactor": 0.0, "roughnessFactor": 0.6, "baseColorTexture": {"index": 0}}, "doubleSided": true, "alphaMode": "BLEND"}], "images": [{"uri": "short04_diffuse.png"}], "textures": [{"source": 0}], "buffers": [{"uri": "SK_Hair_Buzzed.bin", "byteLength": 71488}], "bufferViews": [{"buffer": 0, "byteOffset": 0, "byteLength": 3392}, {"buffer": 0, "byteOffset": 3392, "byteLength": 11892, "target": 34962}, {"buffer": 0, "byteOffset": 15284, "byteLength": 11892, "target": 34962}, {"buffer": 0, "byteOffset": 27176, "byteLength": 7928, "target": 34962}, {"buffer": 0, "byteOffset": 35104, "byteLength": 7928, "target": 34962}, {"buffer": 0, "byteOffset": 43032, "byteLength": 15856, "target": 34962}, {"buffer": 0, "byteOffset": 58888, "byteLength": 12600, "target": 34963}], "accessors": [{"bufferView": 0, "componentType": 5126, "count": 53, "type": "MAT4"}, {"bufferView": 1, "componentType": 5126, "count": 991, "type": "VEC3", "min": [-0.07645265012979507, 1.499050259590149, -0.05454033240675926], "max": [0.07695290446281433, 1.70732843875885, 0.12397720664739609]}, {"bufferView": 2, "componentType": 5126, "count": 991, "type": "VEC3"}, {"bufferView": 3, "componentType": 5126, "count": 991, "type": "VEC2"}, {"bufferView": 4, "componentType": 5123, "count": 991, "type": "VEC4"}, {"bufferView": 5, "componentType": 5126, "count": 991, "type": "VEC4"}, {"bufferView": 6, "componentType": 5125, "count": 3150, "type": "SCALAR"}]}